<svg id="Layer_1" data-name="Layer 1" xmlns="http://www.w3.org/2000/svg" viewBox="0 0 5409.8 90.79"><defs><style>.cls-1{fill:#da1f31;}.cls-2{fill:#009fdd;}.cls-3{fill:#fff;}.cls-4{fill:#4f2169;}</style></defs><title>colored-stripes</title><rect class="cls-1" y="26.71" width="5381.11" height="12.91"/><rect class="cls-2" y="52.25" width="5381.11" height="12.91"/><rect class="cls-1" y="77.8" width="5381.11" height="12.91"/><rect class="cls-2" y="1.15" width="5381.11" height="12.91"/><rect class="cls-3" y="1.15" width="84.2" height="89.56"/><path class="cls-4" d="M0,89.56H84.2V0H0ZM63.82,75.32,43,60.35,22,76.06,29.4,50.78,7.79,35.5l26.09-.18,7.56-25,8.4,25.06,26.57-.07L55.51,51Z" transform="translate(0 1.15)"/><rect class="cls-3" x="5325.6" y="1.23" width="84.2" height="89.56"/><path class="cls-4" d="M5322.89,88.4h84.2V-1.15h-84.2Zm63.82-14.24-20.84-15-21,15.71,7.43-25.28-21.62-15.28,26.09-.18,7.56-25,8.4,25.06,26.57-.07-20.9,15.68Z" transform="translate(0 1.15)"/></svg>