<?xml version="1.0" encoding="utf-8"?>
<!-- Generator: Adobe Illustrator 20.0.0, SVG Export Plug-In . SVG Version: 6.00 Build 0)  -->
<svg version="1.1" height="32" width="32"
	 id="svg2481" inkscape:output_extension="org.inkscape.output.svg.inkscape" inkscape:version="0.46" sodipodi:docname="CoffeeCup.svg" sodipodi:version="0.32" xmlns:cc="http://creativecommons.org/ns#" xmlns:dc="http://purl.org/dc/elements/1.1/" xmlns:inkscape="http://www.inkscape.org/namespaces/inkscape" xmlns:rdf="http://www.w3.org/1999/02/22-rdf-syntax-ns#" xmlns:sodipodi="http://sodipodi.sourceforge.net/DTD/sodipodi-0.dtd" xmlns:svg="http://www.w3.org/2000/svg"
	 xmlns="http://www.w3.org/2000/svg" xmlns:xlink="http://www.w3.org/1999/xlink" x="0px" y="0px" viewBox="0 0 55 83.9"
	 style="enable-background:new 0 0 55 83.9;" xml:space="preserve">
<style type="text/css">
	.st0{fill:#D4AF37;stroke:#EFEBF2;stroke-miterlimit:10;}
</style>
<defs>
	
	
		<inkscape:perspective  id="perspective2489" inkscape:persp3d-origin="372.04724 : 350.78739 : 1" inkscape:vp_x="0 : 526.18109 : 1" inkscape:vp_y="0 : 1000 : 0" inkscape:vp_z="744.09448 : 526.18109 : 1" sodipodi:type="inkscape:persp3d">
		</inkscape:perspective>
</defs>
<sodipodi:namedview  bordercolor="#666666" borderopacity="1.0" gridtolerance="10000" guidetolerance="10" id="base" inkscape:current-layer="layer1" inkscape:cx="0.20281873" inkscape:cy="43.097583" inkscape:document-units="px" inkscape:pageopacity="0.0" inkscape:pageshadow="2" inkscape:window-height="667" inkscape:window-width="640" inkscape:window-x="88" inkscape:window-y="210" inkscape:zoom="2.8" objecttolerance="10" pagecolor="#ffffff" showgrid="false">
	</sodipodi:namedview>
<g id="layer1" transform="translate(-123.90521,-110.39232)" inkscape:groupmode="layer" inkscape:label="Layer 1">
	<g id="g3689" transform="matrix(0.1599968,0,0,0.1546685,276.84661,81.116976)">
		
			<path id="path3691" sodipodi:cx="-783.87836" sodipodi:cy="255.35182" sodipodi:rx="165.66502" sodipodi:ry="56.568542" sodipodi:type="arc" class="st0" d="
			M-615.2,249.3c0,31.2-75.5,56.5-168.7,56.5s-168.7-25.3-168.7-56.5s75.5-56.5,168.7-56.5S-615.2,218.1-615.2,249.3z"/>
		<path id="path3693" sodipodi:nodetypes="csccsccc" class="st0" d="M-617.2,268.5c-9.9,31-92.1,51.5-184.7,48.2
			C-874.9,314-932,297-948.9,273.8l58.5,422.1c11,17.8,49.6,30.4,99,32.4c62.6,2.5,118.8-14.2,124.8-35.5l0,0L-617.2,268.5z"/>
		<path id="path3695" sodipodi:nodetypes="cccsccsc" class="st0" d="M-904.5,649.5l-33.9-235.5l0,0c14.7,20.2,68.4,37.1,136.4,39.5
			c86.2,3,164.2-17.1,173.2-43.3l-24.7,236.2c-6.9,21.3-69.9,37.9-140,35.4C-848.9,679.8-892.1,667.2-904.5,649.5z"/>
	</g>
</g>
</svg>
