<svg xmlns="http://www.w3.org/2000/svg" width="32" height="56" viewBox="0 0 114.12 178.76"><title>cup-blue</title><path d="M88.81,174.26s-8.75,4.5-31.07,4.5c-21.94,0-31.69-4.5-31.69-4.5A2.26,2.26,0,0,1,23.8,172L3.93,9.25A2.26,2.26,0,0,1,6.18,7H108.69a2.26,2.26,0,0,1,2.25,2.25L91.06,172A2.26,2.26,0,0,1,88.81,174.26Z" style="fill:#fff"/><path d="M114,8c-2-4.45-24.12-8-55-8S2.66,3.51.35,8H0V15H.18c0,4.88,26.3,8.84,58.75,8.84s55.19-4,55.19-8.84V8Z" style="fill:#efefef"/><ellipse cx="58.31" cy="11.22" rx="49.32" ry="4.47" style="fill:#382414"/><path d="M16.33,113.67s8.91,6.25,41.42,6.25c31.25,0,41-6.17,41-6.17l8.62-72.9S93.1,47.28,56.57,47,7.62,41.35,7.62,41.35Z" style="fill:#1aa0d9"/><path d="M92.1,165.47s-10.6,4.3-34.35,4.13S23,165.71,23,165.71l-1.52-11.82a176.06,176.06,0,0,0,36,4.28,141,141,0,0,0,35.87-4.28Z" style="fill:#1aa0d9"/></svg>