<svg xmlns="http://www.w3.org/2000/svg" width="100%" height="100%" viewBox="0 0 1046.8 209.02"><title>ribbon_banner_purple</title><polygon points="1046.8 207.02 1013.42 129.02 1046.8 51.01 918.08 51.01 918.08 129.02 918.08 207.02 1046.8 207.02" style="fill:#421d5b"/><polygon points="978.14 158.02 914.08 209.02 914.08 158.02 978.14 158.02" style="fill:#301644"/><polygon points="70 0 112.48 78.01 70 156.02 974.14 156.02 974.14 78.01 974.14 0 70 0" style="fill:#4f2169"/><polygon points="0 207.02 33.38 129.02 0 51.01 128.72 51.01 128.72 129.02 128.72 207.02 0 207.02" style="fill:#421d5b"/><polygon points="68.66 158.02 132.72 209.02 132.72 158.02 68.66 158.02" style="fill:#301644"/><polygon points="976.8 0 934.32 78.01 976.8 156.02 72.66 156.02 72.66 78.01 72.66 0 976.8 0" style="fill:#4f2169"/></svg>