<svg xmlns="http://www.w3.org/2000/svg" width="10.58in" height="10.24in" viewBox="0 0 761.76 737.52"><defs><style>.a{fill:#fff;}.b{fill:#008357;}.c{fill:#ed1b2e;}.d{fill:#f58220;}</style></defs><title>seven_el_logo</title><rect class="a" width="761.76" height="737.52"/><rect class="b" x="20.46" y="20.46" width="720.84" height="696.59"/><path class="a" d="M623.49,651.27c-2.42,11.39-12.71,20.86-23.52,23.3H474.84c-1.55,8.17.6,16.83-.85,25H295.26c-.6,0-2.58.22-2.58-1.23-.64-7.64.44-16.25-.85-23.77l-135.31-.23c-5.14-.64-9.05-4.36-13.34-7.1-5.44-5-7.79-12.09-9.31-19L76.48,88.72c.63-11.22,9.73-21.62,20.09-24.84L655,62.17c10.51,1.53,20.94,8.87,24.56,19.24,1.54,4.7,1.54,9.47,1.11,14.47Z"/><path class="c" d="M593.52,264.6c-48.8,22.22-97.58,68.16-108.16,122.34l-1.74.86H334.54c1.28-6.93,3.87-14.05,6.08-20.76,17.44-53.1,47.87-103.31,90.6-143.28,38.18-37.06,80.08-67.08,126.25-88.44,8.23-2.35,15.55-7.12,24.34-8.65,3.95-.83,7.57-2.14,11.89-2.8l-.18,140.73"/><path class="d" d="M546.24,126.45c-29.56,13.23-57.63,31.31-83.94,52.68-29.15,23.11-54.83,47.71-78.17,76H177.06V126.45Z"/><path class="b" d="M448,398.57c-5,35.6-10.11,71-16.34,105.95h-48l-.6-.45c-5.18-35.14-10.62-70.57-15.39-105.5h33l.48.63c4.09,26.1,7.31,52.64,12.26,78.34,4.77-25.88,7.79-52.84,12.32-79a182.88,182.88,0,0,1,22.22,0"/><polyline class="b" points="227.5 420.39 202.12 420.39 202.12 438.96 226.96 438.96 226.96 461.43 202.12 461.43 202.12 482.41 226.92 482.41 226.92 504.52 168.83 504.52 168.83 398.05 227.5 398.05 227.5 420.39"/><polyline class="b" points="361.2 420.39 335.83 420.39 335.83 438.96 360.69 438.96 360.69 461.43 335.83 461.43 335.83 482.41 360.64 482.41 360.64 504.52 302.55 504.52 302.55 398.05 361.2 398.05 361.2 420.39"/><polyline class="b" points="514.37 420.39 489.05 420.39 489.05 438.96 513.88 438.96 513.88 461.43 489.05 461.43 489.05 482.41 513.81 482.41 513.81 504.52 455.72 504.52 455.72 398.05 514.37 398.05 514.37 420.39"/><polyline class="b" points="238.94 398.05 272.25 398.05 272.25 482.41 295.95 482.41 295.95 504.52 238.94 504.52 238.94 398.05"/><path class="b" d="M557.39,410.32c6.75-9.84,14.77-14.51,26.82-14.51,18.78,0,22.32,13.61,22.32,40.52v68.6H574.4V438c0-9.31-.6-15.91-7.83-15.91-8.36,0-8.84,7.38-8.84,20.63v62.2H525.56V398.35h31.83v12"/><path class="b" d="M506.23,539c3.48,0,6.57-.28,6.57-4.47,0-3.32-3-4-5.93-4h-5.6V539h5m-5,15.31h-4.14v-27.3h10.43c6.42,0,9.59,2.42,9.59,7.79,0,4.88-3,7-7.05,7.51l7.8,12h-4.66L506,542.56h-4.73Zm5,6.11c10.71,0,19.2-8.39,19.2-19.77,0-11.21-8.49-19.71-19.2-19.71s-19.3,8.5-19.3,19.71C487,552.07,495.46,560.46,506.27,560.46Zm-24-19.77c0-13.63,11-23.63,24-23.63a23.66,23.66,0,1,1,0,47.32C493.26,564.38,482.23,554.35,482.23,540.69Z"/><path class="c" d="M303,688.59l-.42-2.6c0-16,.86-32.37,1.34-48.13,1.93-40.35,4.74-82.19,10.55-121.91l154.73.18C463.8,573.36,464,631,464,688.75Z"/></svg>